
<svg xmlns="http://www.w3.org/2000/svg" width="100" height="89" viewBox="0 0 100 89">
    <g fill="none" fill-rule="evenodd">
        <path fill="#2496FF" d="M31.726 64.727H17.513c-1.122 0-2.03.906-2.03 2.023v12.136c0 1.117.908 2.023 2.03 2.023h14.213c1.121 0 2.03-.906 2.03-2.023V66.75c0-1.117-.909-2.023-2.03-2.023zM19.543 76.864h10.152v-8.091H19.543v8.09zM36.802 71.807h9.137V67.76h-9.137zM36.802 77.875h23.35V73.83h-23.35zM76.396 79.898h8.122v-4.046h-8.122zM76.396 73.83h8.122v-4.046h-8.122z"/>
        <path fill="#4A4A4A" d="M99.621 46.835l-7.106-19.216a2.031 2.031 0 0 0-1.906-1.324H78.426V2.023C78.426.906 77.517 0 76.396 0H23.604c-1.121 0-2.03.906-2.03 2.023v24.272H9.39c-.838 0-1.588.513-1.893 1.29L.392 45.79a2.015 2.015 0 0 0 .217 1.875c.378.55 1.005.88 1.675.88H7.36v38.432c0 1.117.91 2.023 2.03 2.023h81.22c1.12 0 2.03-.906 2.03-2.023v-37.42h5.076a2.03 2.03 0 0 0 1.665-.866c.38-.543.47-1.236.24-1.856zM25.635 10.114h32.487V4.045H25.635v6.069zm0 16.181h32.487V14.16H25.635v12.136zM5.253 44.5l5.527-14.16h56.556L61.81 44.5H5.253zm63.021 40.455H11.421v-36.41h51.777a2.03 2.03 0 0 0 1.893-1.29l3.183-8.154v45.854zm-6.091-58.66h12.182V4.045H62.183v22.25zm26.396 58.66H72.335V37.314L77.607 48.4a2.032 2.032 0 0 0 1.835 1.157h9.137v35.398zM80.726 45.51l-7.213-15.17h15.68l5.61 15.17H80.727z"/>
        <path fill="#2496FF" d="M65.228 12.136h6.092V8.091h-6.092zM65.228 18.205h6.092v-4.046h-6.092z"/>
    </g>
</svg>
