<svg xmlns="http://www.w3.org/2000/svg" xmlns:xlink="http://www.w3.org/1999/xlink" width="100" height="74" viewBox="0 0 100 74">
    <defs>
        <path id="a" d="M0 .098h100v72.266H0z"/>
    </defs>
    <g fill="none" fill-rule="evenodd">
        <g transform="translate(0 1.579)">
            <mask id="b" fill="#fff">
                <use xlink:href="#a"/>
            </mask>
            <path fill="#4A4A4A" d="M98.331 57.24h-1.67V8.5C96.655 3.864 92.92.105 88.31.099h-6.68v3.36h6.68c2.767 0 5.01 2.259 5.01 5.043V57.24h-6.68V21.946c0-3.83-2.573-7.176-6.257-8.136l-.835 3.255a5.035 5.035 0 0 1 3.752 4.881v5.042h-20.04v3.361h20.04v26.89H59.922c-.718 0-1.357.463-1.585 1.15l-1.289 3.893H42.757l-1.29-3.893a1.67 1.67 0 0 0-1.584-1.15h-23.38V30.35h20.04v-3.361h-20.04v-5.042c0-2.785 2.244-5.042 5.01-5.042h28.389v-3.36H21.514c-4.61.005-8.345 3.764-8.35 8.402v35.293h-6.68V8.5c0-2.784 2.243-5.042 5.01-5.042h46.758V.098H11.494C6.884.103 3.15 3.863 3.144 8.5V57.24h-1.67c-.922 0-1.67.752-1.67 1.68v5.042c.005 4.638 3.74 8.397 8.35 8.402h83.497c4.609-.005 8.344-3.764 8.349-8.402V58.92c0-.927-.747-1.68-1.669-1.68zm-1.67 6.722c0 2.784-2.243 5.042-5.01 5.042H8.154c-2.767 0-5.01-2.258-5.01-5.042v-3.361H38.68l.908 2.744a3.341 3.341 0 0 0 3.17 2.297h14.291a3.34 3.34 0 0 0 3.173-2.297l.905-2.744H96.66v3.361z" mask="url(#b)"/>
        </g>
        <path fill="#2496FF" d="M19.843 25.205h3.34v-3.361h-3.34zM26.524 25.205h3.34v-3.361h-3.34z"/>
        <g fill="#2496FF">
            <path d="M33.203 25.205h3.34v-3.361h-3.34zM37.24 33.483a9.876 9.876 0 0 0-7.615 2.91 10.131 10.131 0 0 0-2.237 10.805 1.668 1.668 0 0 0 2.736.577l4.227-4.253L36.71 45.9l-4.225 4.254a1.681 1.681 0 0 0 .574 2.753 9.971 9.971 0 0 0 10.735-2.253 9.999 9.999 0 0 0 2.893-7.661l22.558-22.703a9.878 9.878 0 0 0 7.614-2.91 10.133 10.133 0 0 0 2.237-10.805 1.667 1.667 0 0 0-2.735-.576l-4.226 4.25-2.36-2.375L74 3.62a1.69 1.69 0 0 0-.001-2.377 1.67 1.67 0 0 0-.572-.376A9.97 9.97 0 0 0 62.69 3.12a9.997 9.997 0 0 0-2.892 7.662l-22.56 22.702zM62.716 12.6a1.69 1.69 0 0 0 .473-1.42c-.537-3.644 1.964-7.035 5.584-7.574.192-.028.384-.048.578-.06l-3.12 3.138a1.687 1.687 0 0 0 0 2.378l4.723 4.753a1.662 1.662 0 0 0 2.362.001l.001-.001 3.118-3.14c-.218 3.676-3.355 6.48-7.008 6.262a6.337 6.337 0 0 1-.577-.06 1.642 1.642 0 0 0-1.411.476L43.769 41.17a1.69 1.69 0 0 0-.473 1.42c.536 3.644-1.965 7.034-5.584 7.574a6.689 6.689 0 0 1-.578.06l3.12-3.138a1.69 1.69 0 0 0 .001-2.377l-.001-.002-4.723-4.752a1.662 1.662 0 0 0-2.363 0l-3.118 3.14c.217-3.677 3.355-6.48 7.007-6.263.194.012.386.032.578.06a1.658 1.658 0 0 0 1.41-.475l23.671-23.817z"/>
        </g>
    </g>
</svg>
